<svg id="visual" viewBox="0 0 900 600" width="900" height="600" xmlns="http://www.w3.org/2000/svg" xmlns:xlink="http://www.w3.org/1999/xlink" version="1.1"><rect x="0" y="0" width="900" height="600" fill="#FFFFFF"></rect><defs><linearGradient id="grad1_0" x1="33.3%" y1="0%" x2="100%" y2="100%"><stop offset="20%" stop-color="#f7770f" stop-opacity="1"></stop><stop offset="80%" stop-color="#f7770f" stop-opacity="1"></stop></linearGradient></defs><defs><linearGradient id="grad1_1" x1="33.3%" y1="0%" x2="100%" y2="100%"><stop offset="20%" stop-color="#f7770f" stop-opacity="1"></stop><stop offset="80%" stop-color="#ffbb8c" stop-opacity="1"></stop></linearGradient></defs><defs><linearGradient id="grad1_2" x1="33.3%" y1="0%" x2="100%" y2="100%"><stop offset="20%" stop-color="#ffffff" stop-opacity="1"></stop><stop offset="80%" stop-color="#ffbb8c" stop-opacity="1"></stop></linearGradient></defs><defs><linearGradient id="grad2_0" x1="0%" y1="0%" x2="66.7%" y2="100%"><stop offset="20%" stop-color="#f7770f" stop-opacity="1"></stop><stop offset="80%" stop-color="#f7770f" stop-opacity="1"></stop></linearGradient></defs><defs><linearGradient id="grad2_1" x1="0%" y1="0%" x2="66.7%" y2="100%"><stop offset="20%" stop-color="#ffbb8c" stop-opacity="1"></stop><stop offset="80%" stop-color="#f7770f" stop-opacity="1"></stop></linearGradient></defs><defs><linearGradient id="grad2_2" x1="0%" y1="0%" x2="66.7%" y2="100%"><stop offset="20%" stop-color="#ffbb8c" stop-opacity="1"></stop><stop offset="80%" stop-color="#ffffff" stop-opacity="1"></stop></linearGradient></defs><g transform="translate(900, 0)"><path d="M0 243.4C-22.4 230.9 -44.7 218.4 -68.9 212.1C-93.1 205.8 -119.1 205.8 -142.2 195.8C-165.4 185.8 -185.6 165.8 -196.9 143.1C-208.2 120.3 -210.6 94.8 -216.8 70.5C-223.1 46.2 -233.2 23.1 -243.4 0L0 0Z" fill="#ffddc5"></path><path d="M0 162.2C-14.9 153.9 -29.8 145.6 -45.9 141.4C-62.1 137.2 -79.4 137.2 -94.8 130.5C-110.2 123.9 -123.7 110.5 -131.3 95.4C-138.8 80.2 -140.4 63.2 -144.6 47C-148.7 30.8 -155.5 15.4 -162.2 0L0 0Z" fill="#ff9a54"></path><path d="M0 81.1C-7.5 77 -14.9 72.8 -23 70.7C-31 68.6 -39.7 68.6 -47.4 65.3C-55.1 61.9 -61.9 55.3 -65.6 47.7C-69.4 40.1 -70.2 31.6 -72.3 23.5C-74.4 15.4 -77.7 7.7 -81.1 0L0 0Z" fill="#f7770f"></path></g><g transform="translate(0, 600)"><path d="M0 -243.4C24.1 -234.7 48.3 -226 70.5 -216.8C92.6 -207.7 112.8 -198 135.8 -186.9C158.7 -175.8 184.5 -163.3 196.9 -143.1C209.3 -122.8 208.5 -94.7 214 -69.5C219.5 -44.4 231.4 -22.2 243.4 0L0 0Z" fill="#ffddc5"></path><path d="M0 -162.2C16.1 -156.5 32.2 -150.7 47 -144.6C61.7 -138.4 75.2 -132 90.5 -124.6C105.8 -117.2 123 -108.9 131.3 -95.4C139.5 -81.8 139 -63.1 142.7 -46.4C146.3 -29.6 154.3 -14.8 162.2 0L0 0Z" fill="#ff9a54"></path><path d="M0 -81.1C8 -78.2 16.1 -75.3 23.5 -72.3C30.9 -69.2 37.6 -66 45.3 -62.3C52.9 -58.6 61.5 -54.4 65.6 -47.7C69.8 -40.9 69.5 -31.6 71.3 -23.2C73.2 -14.8 77.1 -7.4 81.1 0L0 0Z" fill="#f7770f"></path></g></svg>